<svg width="224" height="132" viewBox="0 0 224 132" fill="none" xmlns="http://www.w3.org/2000/svg">
<rect x="56" y="42" width="66" height="43" fill="#178DD0"/>
<path d="M122.443 41.7341L54.5608 73.6185L55.3062 8.30854L122.443 41.7341Z" fill="#178DD0"/>
<path d="M55 1V85H223" stroke="#222222" stroke-width="2" stroke-linecap="round" stroke-linejoin="round"/>
<path d="M122 41.5V83" stroke="#032C6A" stroke-width="2" stroke-linecap="round" stroke-dasharray="4 6"/>
<path d="M104.176 98.875H107.801V109H109.551V98.875H113.181V97.3636H104.176V98.875ZM115.035 109H116.734V100.273H115.035V109ZM115.893 98.9261C116.478 98.9261 116.967 98.4716 116.967 97.9148C116.967 97.358 116.478 96.8977 115.893 96.8977C115.302 96.8977 114.819 97.358 114.819 97.9148C114.819 98.4716 115.302 98.9261 115.893 98.9261ZM119.019 109H120.718V103.619C120.718 102.443 121.542 101.625 122.508 101.625C123.451 101.625 124.105 102.25 124.105 103.199V109H125.798V103.438C125.798 102.386 126.44 101.625 127.548 101.625C128.445 101.625 129.184 102.125 129.184 103.307V109H130.883V103.148C130.883 101.153 129.769 100.159 128.19 100.159C126.934 100.159 125.991 100.761 125.57 101.693H125.48C125.099 100.739 124.298 100.159 123.133 100.159C121.98 100.159 121.122 100.733 120.758 101.693H120.65V100.273H119.019V109ZM136.921 109.176C138.825 109.176 140.171 108.239 140.558 106.818L138.95 106.528C138.643 107.352 137.904 107.773 136.938 107.773C135.484 107.773 134.507 106.83 134.461 105.148H140.666V104.545C140.666 101.392 138.779 100.159 136.802 100.159C134.37 100.159 132.768 102.011 132.768 104.693C132.768 107.403 134.347 109.176 136.921 109.176ZM134.467 103.875C134.535 102.636 135.433 101.562 136.813 101.562C138.132 101.562 138.995 102.54 139.001 103.875H134.467Z" fill="#676767"/>
<path d="M185.371 98H189.679V97.1531H186.732V97.1051L188.033 95.7436C189.232 94.5323 189.574 93.9538 189.574 93.2219C189.574 92.1705 188.717 91.3651 187.483 91.3651C186.259 91.3651 185.364 92.1577 185.364 93.353H186.307C186.304 92.6499 186.758 92.1896 187.464 92.1896C188.129 92.1896 188.634 92.5987 188.634 93.2507C188.634 93.8292 188.289 94.2447 187.586 94.9893L185.371 97.2841V98ZM193.889 99.8409C194.678 99.8409 195.177 99.4286 195.461 98.6552L197.491 93.1005L196.459 93.0909L195.215 96.9006H195.164L193.921 93.0909H192.898L194.694 98.0639L194.576 98.3899C194.333 99.0419 193.991 99.0962 193.467 98.9524L193.237 99.7354C193.352 99.7866 193.601 99.8409 193.889 99.8409ZM200.331 98.0991C201.402 98.0991 202.16 97.5717 202.377 96.7727L201.472 96.6097C201.3 97.0732 200.884 97.3097 200.341 97.3097C199.523 97.3097 198.973 96.7791 198.948 95.8331H202.438V95.4943C202.438 93.7205 201.377 93.027 200.264 93.027C198.896 93.027 197.995 94.0689 197.995 95.5774C197.995 97.1019 198.884 98.0991 200.331 98.0991ZM198.951 95.1172C198.989 94.4205 199.494 93.8164 200.271 93.8164C201.012 93.8164 201.498 94.3661 201.501 95.1172H198.951ZM204.926 98.1087C205.738 98.1087 206.195 97.6964 206.377 97.3288H206.416V98H207.349V94.7401C207.349 93.3114 206.224 93.027 205.444 93.027C204.556 93.027 203.738 93.3849 203.418 94.2798L204.316 94.4844C204.457 94.136 204.815 93.8004 205.457 93.8004C206.074 93.8004 206.39 94.1232 206.39 94.6793V94.7017C206.39 95.0501 206.032 95.0437 205.15 95.146C204.22 95.2546 203.268 95.4975 203.268 96.6129C203.268 97.5781 203.993 98.1087 204.926 98.1087ZM205.134 97.3416C204.594 97.3416 204.204 97.0987 204.204 96.6257C204.204 96.1143 204.658 95.9322 205.211 95.8587C205.521 95.8171 206.256 95.734 206.393 95.5966V96.2294C206.393 96.8111 205.93 97.3416 205.134 97.3416ZM208.622 98H209.578V95.0021C209.578 94.3597 210.073 93.8963 210.75 93.8963C210.949 93.8963 211.172 93.9315 211.249 93.9538V93.0398C211.153 93.027 210.965 93.0174 210.843 93.0174C210.268 93.0174 209.776 93.3434 209.597 93.8707H209.546V93.0909H208.622V98ZM215.755 94.2894C215.556 93.5256 214.959 93.027 213.898 93.027C212.789 93.027 212.002 93.6119 212.002 94.4812C212.002 95.1779 212.424 95.6413 213.345 95.8459L214.176 96.0281C214.649 96.1335 214.869 96.3445 214.869 96.6513C214.869 97.0316 214.463 97.3288 213.837 97.3288C213.265 97.3288 212.897 97.0827 212.782 96.6001L211.859 96.7408C212.018 97.6101 212.741 98.0991 213.843 98.0991C215.029 98.0991 215.85 97.4695 215.85 96.581C215.85 95.8874 215.409 95.4592 214.508 95.2514L213.728 95.0724C213.188 94.9446 212.955 94.7624 212.958 94.43C212.955 94.0529 213.364 93.7844 213.907 93.7844C214.502 93.7844 214.777 94.1136 214.888 94.4428L215.755 94.2894Z" fill="#343434"/>
<path d="M6.09482 23.4062H8.81357V31H10.1261V23.4062H12.8491V22.2727H6.09482V23.4062ZM14.3416 31H15.6584V27.6974H17.4482C17.478 27.6974 17.5036 27.6974 17.5334 27.6974L19.3061 31H20.8061L18.8714 27.4673C19.9411 27.071 20.4737 26.1804 20.4737 25.0085C20.4737 23.402 19.4766 22.2727 17.4524 22.2727H14.3416V31ZM15.6584 26.5639V23.402H17.3118C18.6115 23.402 19.1484 24.0199 19.1484 25.0085C19.1484 25.9929 18.6115 26.5639 17.3288 26.5639H15.6584ZM23.3928 22.2727H22.076V31H23.3928V22.2727ZM25.3104 31H28.6555C30.6839 31 31.6001 29.9901 31.6001 28.652C31.6001 27.3011 30.6541 26.5384 29.7891 26.4915V26.4062C30.5902 26.2017 31.2592 25.6562 31.2592 24.5653C31.2592 23.2741 30.3643 22.2727 28.5064 22.2727H25.3104V31ZM26.6271 29.8707V27.0753H28.5746C29.6314 27.0753 30.2919 27.7571 30.2919 28.5881C30.2919 29.321 29.7933 29.8707 28.5277 29.8707H26.6271ZM26.6271 26.0483V23.3935H28.4254C29.4695 23.3935 29.968 23.9432 29.968 24.6676C29.968 25.5114 29.2777 26.0483 28.3913 26.0483H26.6271ZM33.1619 31H38.6847V29.8665H34.4787V27.1946H38.348V26.0653H34.4787V23.4062H38.6335V22.2727H33.1619V31ZM1.80842 46H3.12518V42.6974H4.91495C4.94478 42.6974 4.97035 42.6974 5.00018 42.6974L6.7729 46H8.27291L6.33825 42.4673C7.40785 42.071 7.94052 41.1804 7.94052 40.0085C7.94052 38.402 6.94336 37.2727 4.91921 37.2727H1.80842V46ZM3.12518 41.5639V38.402H4.77859C6.0783 38.402 6.61523 39.0199 6.61523 40.0085C6.61523 40.9929 6.0783 41.5639 4.79563 41.5639H3.12518ZM12.1795 46.1321C13.6071 46.1321 14.617 45.429 14.9068 44.3636L13.7008 44.1463C13.4707 44.7642 12.9167 45.0795 12.1923 45.0795C11.1014 45.0795 10.3684 44.3722 10.3343 43.1108H14.9877V42.6591C14.9877 40.294 13.573 39.3693 12.09 39.3693C10.2662 39.3693 9.06445 40.7585 9.06445 42.7699C9.06445 44.8026 10.2491 46.1321 12.1795 46.1321ZM10.3386 42.1562C10.3897 41.2273 11.063 40.4219 12.0985 40.4219C13.0872 40.4219 13.7349 41.1548 13.7392 42.1562H10.3386ZM17.8088 46H19.1042L20.4338 41.2741H20.5318L21.8613 46H23.161L25.0829 39.4545H23.7662L22.492 44.2401H22.4281L21.1497 39.4545H19.8329L18.546 44.2614H18.4821L17.1994 39.4545H15.8826L17.8088 46ZM28.1969 46.1449C29.2793 46.1449 29.8887 45.5952 30.1316 45.1051H30.1827V46H31.427V41.6534C31.427 39.7486 29.927 39.3693 28.8873 39.3693C27.7026 39.3693 26.6117 39.8466 26.1855 41.0398L27.383 41.3125C27.5705 40.848 28.0478 40.4006 28.9043 40.4006C29.7267 40.4006 30.1486 40.831 30.1486 41.5724V41.6023C30.1486 42.0668 29.6713 42.0582 28.4952 42.1946C27.2551 42.3395 25.9853 42.6634 25.9853 44.1506C25.9853 45.4375 26.9526 46.1449 28.1969 46.1449ZM28.4739 45.1222C27.7537 45.1222 27.2338 44.7983 27.2338 44.1676C27.2338 43.4858 27.839 43.2429 28.5762 43.1449C28.9895 43.0895 29.9696 42.9787 30.1529 42.7955V43.6392C30.1529 44.4148 29.535 45.1222 28.4739 45.1222ZM33.1241 46H34.3983V42.0028C34.3983 41.1463 35.0588 40.5284 35.9622 40.5284C36.2264 40.5284 36.5247 40.5753 36.627 40.6051V39.3864C36.4991 39.3693 36.2477 39.3565 36.0858 39.3565C35.3187 39.3565 34.6625 39.7912 34.4238 40.4943H34.3556V39.4545H33.1241V46ZM39.9455 46.1278C41.1387 46.1278 41.6074 45.3991 41.8375 44.9815H41.9441V46H43.1884V37.2727H41.9142V40.5156H41.8375C41.6074 40.1108 41.1728 39.3693 39.954 39.3693C38.373 39.3693 37.2097 40.6179 37.2097 42.7401C37.2097 44.858 38.356 46.1278 39.9455 46.1278ZM40.2267 45.0412C39.089 45.0412 38.4966 44.0398 38.4966 42.7273C38.4966 41.4276 39.0762 40.4517 40.2267 40.4517C41.339 40.4517 41.9355 41.3594 41.9355 42.7273C41.9355 44.1037 41.3262 45.0412 40.2267 45.0412ZM10.4569 61H11.7736V57.6974H13.5634C13.5932 57.6974 13.6188 57.6974 13.6486 57.6974L15.4213 61H16.9213L14.9867 57.4673C16.0563 57.071 16.589 56.1804 16.589 55.0085C16.589 53.402 15.5918 52.2727 13.5676 52.2727H10.4569V61ZM11.7736 56.5639V53.402H13.427C14.7267 53.402 15.2637 54.0199 15.2637 55.0085C15.2637 55.9929 14.7267 56.5639 13.4441 56.5639H11.7736ZM19.9938 61.1449C21.0762 61.1449 21.6855 60.5952 21.9284 60.1051H21.9796V61H23.2239V56.6534C23.2239 54.7486 21.7239 54.3693 20.6841 54.3693C19.4995 54.3693 18.4086 54.8466 17.9824 56.0398L19.1799 56.3125C19.3674 55.848 19.8446 55.4006 20.7012 55.4006C21.5236 55.4006 21.9455 55.831 21.9455 56.5724V56.6023C21.9455 57.0668 21.4682 57.0582 20.2921 57.1946C19.052 57.3395 17.7821 57.6634 17.7821 59.1506C17.7821 60.4375 18.7495 61.1449 19.9938 61.1449ZM20.2708 60.1222C19.5506 60.1222 19.0307 59.7983 19.0307 59.1676C19.0307 58.4858 19.6358 58.2429 20.373 58.1449C20.7864 58.0895 21.7665 57.9787 21.9498 57.7955V58.6392C21.9498 59.4148 21.3319 60.1222 20.2708 60.1222ZM27.9764 54.4545H26.6341V52.8864H25.3599V54.4545H24.4011V55.4773H25.3599V59.3423C25.3556 60.5312 26.2633 61.1065 27.269 61.0852C27.6738 61.081 27.9466 61.0043 28.0957 60.9489L27.8656 59.8963C27.7804 59.9134 27.6227 59.9517 27.4181 59.9517C27.0048 59.9517 26.6341 59.8153 26.6341 59.0781V55.4773H27.9764V54.4545ZM32.1365 61.1321C33.5641 61.1321 34.574 60.429 34.8638 59.3636L33.6578 59.1463C33.4277 59.7642 32.8738 60.0795 32.1493 60.0795C31.0584 60.0795 30.3255 59.3722 30.2914 58.1108H34.9448V57.6591C34.9448 55.294 33.53 54.3693 32.0471 54.3693C30.2232 54.3693 29.0215 55.7585 29.0215 57.7699C29.0215 59.8026 30.2061 61.1321 32.1365 61.1321ZM30.2956 57.1562C30.3468 56.2273 31.0201 55.4219 32.0556 55.4219C33.0442 55.4219 33.6919 56.1548 33.6962 57.1562H30.2956Z" fill="#676767"/>
<path d="M67.7191 50H68.7067V47.5231H70.049C70.0714 47.5231 70.0906 47.5231 70.1129 47.5231L71.4425 50H72.5675L71.1165 47.3505C71.9187 47.0533 72.3182 46.3853 72.3182 45.5064C72.3182 44.3015 71.5703 43.4545 70.0522 43.4545H67.7191V50ZM68.7067 46.6729V44.3015H69.9467C70.9215 44.3015 71.3242 44.7649 71.3242 45.5064C71.3242 46.2447 70.9215 46.6729 69.9595 46.6729H68.7067ZM75.4974 50.0991C76.5681 50.0991 77.3256 49.5717 77.5429 48.7727L76.6384 48.6097C76.4658 49.0732 76.0503 49.3097 75.507 49.3097C74.6888 49.3097 74.1391 48.7791 74.1135 47.8331H77.6036V47.4943C77.6036 45.7205 76.5425 45.027 75.4303 45.027C74.0624 45.027 73.1611 46.0689 73.1611 47.5774C73.1611 49.1019 74.0496 50.0991 75.4974 50.0991ZM74.1167 47.1172C74.1551 46.4205 74.6601 45.8164 75.4367 45.8164C76.1782 45.8164 76.664 46.3661 76.6672 47.1172H74.1167ZM79.6195 43.4545H78.6639V50H79.6195V43.4545ZM83.0209 50.0991C84.0915 50.0991 84.849 49.5717 85.0663 48.7727L84.1618 48.6097C83.9893 49.0732 83.5738 49.3097 83.0305 49.3097C82.2123 49.3097 81.6626 48.7791 81.637 47.8331H85.127V47.4943C85.127 45.7205 84.066 45.027 82.9537 45.027C81.5858 45.027 80.6846 46.0689 80.6846 47.5774C80.6846 49.1019 81.5731 50.0991 83.0209 50.0991ZM81.6402 47.1172C81.6785 46.4205 82.1835 45.8164 82.9601 45.8164C83.7016 45.8164 84.1874 46.3661 84.1906 47.1172H81.6402ZM87.6159 50.1087C88.4277 50.1087 88.8848 49.6964 89.0669 49.3288H89.1053V50H90.0385V46.7401C90.0385 45.3114 88.9135 45.027 88.1337 45.027C87.2452 45.027 86.427 45.3849 86.1074 46.2798L87.0055 46.4844C87.1461 46.136 87.5041 45.8004 88.1465 45.8004C88.7633 45.8004 89.0797 46.1232 89.0797 46.6793V46.7017C89.0797 47.0501 88.7218 47.0437 87.8397 47.146C86.9096 47.2546 85.9572 47.4975 85.9572 48.6129C85.9572 49.5781 86.6827 50.1087 87.6159 50.1087ZM87.8237 49.3416C87.2836 49.3416 86.8936 49.0987 86.8936 48.6257C86.8936 48.1143 87.3475 47.9322 87.9004 47.8587C88.2104 47.8171 88.9455 47.734 89.0829 47.5966V48.2294C89.0829 48.8111 88.6195 49.3416 87.8237 49.3416ZM94.99 46.2894C94.7918 45.5256 94.1942 45.027 93.1331 45.027C92.0241 45.027 91.2378 45.6119 91.2378 46.4812C91.2378 47.1779 91.6597 47.6413 92.5802 47.8459L93.4111 48.0281C93.8841 48.1335 94.1047 48.3445 94.1047 48.6513C94.1047 49.0316 93.6988 49.3288 93.0724 49.3288C92.5003 49.3288 92.1327 49.0827 92.0177 48.6001L91.094 48.7408C91.2538 49.6101 91.9761 50.0991 93.0787 50.0991C94.2645 50.0991 95.0858 49.4695 95.0858 48.581C95.0858 47.8874 94.6448 47.4592 93.7435 47.2514L92.9637 47.0724C92.4236 46.9446 92.1903 46.7624 92.1934 46.43C92.1903 46.0529 92.5993 45.7844 93.1427 45.7844C93.7371 45.7844 94.012 46.1136 94.1238 46.4428L94.99 46.2894ZM98.2523 50.0991C99.323 50.0991 100.08 49.5717 100.298 48.7727L99.3933 48.6097C99.2207 49.0732 98.8052 49.3097 98.2619 49.3097C97.4437 49.3097 96.894 48.7791 96.8684 47.8331H100.358V47.4943C100.358 45.7205 99.2974 45.027 98.1852 45.027C96.8173 45.027 95.916 46.0689 95.916 47.5774C95.916 49.1019 96.8045 50.0991 98.2523 50.0991ZM96.8716 47.1172C96.91 46.4205 97.415 45.8164 98.1916 45.8164C98.9331 45.8164 99.4189 46.3661 99.4221 47.1172H96.8716ZM103.256 50.0959C104.151 50.0959 104.503 49.5494 104.676 49.2362H104.755V50H105.689V43.4545H104.733V45.8867H104.676C104.503 45.5831 104.177 45.027 103.263 45.027C102.077 45.027 101.205 45.9634 101.205 47.555C101.205 49.1435 102.064 50.0959 103.256 50.0959ZM103.467 49.2809C102.614 49.2809 102.17 48.5298 102.17 47.5455C102.17 46.5707 102.604 45.8388 103.467 45.8388C104.302 45.8388 104.749 46.5195 104.749 47.5455C104.749 48.5778 104.292 49.2809 103.467 49.2809ZM67.3963 55.3047H69.4354V61H70.4197V55.3047H72.462V54.4545H67.3963V55.3047ZM73.5814 61H74.569V58.5231H75.9113C75.9337 58.5231 75.9529 58.5231 75.9752 58.5231L77.3048 61H78.4298L76.9788 58.3505C77.781 58.0533 78.1805 57.3853 78.1805 56.5064C78.1805 55.3015 77.4326 54.4545 75.9145 54.4545H73.5814V61ZM74.569 57.6729V55.3015H75.809C76.7838 55.3015 77.1865 55.7649 77.1865 56.5064C77.1865 57.2447 76.7838 57.6729 75.8218 57.6729H74.569ZM80.3698 54.4545H79.3822V61H80.3698V54.4545ZM81.808 61H84.3169C85.8382 61 86.5253 60.2425 86.5253 59.239C86.5253 58.2259 85.8158 57.6538 85.167 57.6186V57.5547C85.7678 57.4013 86.2696 56.9922 86.2696 56.174C86.2696 55.2056 85.5985 54.4545 84.205 54.4545H81.808V61ZM82.7955 60.1531V58.0565H84.2561C85.0487 58.0565 85.5441 58.5678 85.5441 59.1911C85.5441 59.7408 85.1702 60.1531 84.221 60.1531H82.7955ZM82.7955 57.2862V55.2951H84.1443C84.9273 55.2951 85.3012 55.7074 85.3012 56.2507C85.3012 56.8835 84.7835 57.2862 84.1187 57.2862H82.7955ZM87.6966 61H91.8387V60.1499H88.6842V58.146H91.5862V57.299H88.6842V55.3047H91.8003V54.4545H87.6966V61Z" fill="white"/>
<path d="M55.9492 8.3639L207.684 84.6361" stroke="black" stroke-width="3"/>
<circle cx="100" cy="58" r="6" fill="#178DD0"/>
<path d="M96.8125 55.1914C96.8125 54.7596 96.8125 54.5438 96.9373 54.3891C96.9532 54.3695 96.9719 54.3494 96.9903 54.3321C97.1352 54.1962 97.3449 54.1807 97.7643 54.1496C98.3501 54.1061 99.1499 54.0625 100 54.0625C100.85 54.0625 101.65 54.1061 102.236 54.1496C102.655 54.1807 102.865 54.1962 103.01 54.3321C103.028 54.3494 103.047 54.3695 103.063 54.3891C103.188 54.5438 103.188 54.7596 103.188 55.1914V55.1914C103.188 55.6196 103.188 55.8337 103.063 55.9882C103.047 56.0078 103.028 56.0281 103.01 56.0453C102.865 56.1812 102.658 56.1967 102.244 56.2276C101.673 56.2703 100.885 56.3125 100 56.3125C99.115 56.3125 98.327 56.2703 97.7559 56.2276C97.342 56.1967 97.135 56.1812 96.9901 56.0453C96.9718 56.0281 96.953 56.0078 96.9372 55.9882C96.8125 55.8337 96.8125 55.6196 96.8125 55.1914V55.1914Z" fill="white"/>
<path d="M96.7985 58.234C96.8295 57.9577 96.845 57.8196 96.9657 57.7227C97.0864 57.6259 97.2243 57.6406 97.4999 57.6702C97.6243 57.6835 97.7687 57.7008 97.934 57.7231C98.0793 57.7428 98.2116 57.7731 98.3303 57.8092C98.5725 57.8827 98.6936 57.9195 98.8781 58.1682C99.0625 58.417 99.0625 58.617 99.0625 59.017C99.0625 59.2632 99.0625 59.5757 99.0625 59.9687C99.0625 60.521 99.0625 60.9141 99.0625 61.1881C99.0625 61.4529 99.0625 61.5852 98.9801 61.6676C98.8977 61.75 98.7652 61.75 98.5001 61.75C98.297 61.75 98.0635 61.75 97.8438 61.75C97.8285 61.75 97.8134 61.75 97.7985 61.75C97.3627 61.7498 97.1449 61.7497 96.9837 61.602C96.8225 61.4542 96.8046 61.25 96.7688 60.8415C96.7408 60.5213 96.7188 60.1293 96.7188 59.6875C96.7188 59.0973 96.758 58.595 96.7985 58.234Z" fill="white"/>
<path d="M103.108 58.234C103.077 57.9577 103.061 57.8196 102.941 57.7227C102.82 57.6259 102.682 57.6406 102.406 57.6702C102.282 57.6835 102.138 57.7008 101.972 57.7231C101.827 57.7428 101.695 57.7731 101.576 57.8092C101.334 57.8827 101.213 57.9195 101.028 58.1682C100.844 58.417 100.844 58.617 100.844 59.017C100.844 59.2632 100.844 59.5757 100.844 59.9687C100.844 60.521 100.844 60.9141 100.844 61.1881C100.844 61.4529 100.844 61.5852 100.926 61.6676C101.009 61.75 101.141 61.75 101.406 61.75C101.609 61.75 101.843 61.75 102.062 61.75C102.078 61.75 102.093 61.75 102.108 61.75C102.544 61.7498 102.761 61.7497 102.923 61.602C103.084 61.4542 103.102 61.25 103.137 60.8415C103.165 60.5213 103.188 60.1293 103.188 59.6875C103.188 59.0973 103.148 58.595 103.108 58.234Z" fill="white"/>
</svg>
